<?xml version="1.0" encoding="utf-8"?>
<!-- Generator: Adobe Illustrator 18.1.1, SVG Export Plug-In . SVG Version: 6.00 Build 0)  -->
<svg version="1.1" id="Layer_1" xmlns="http://www.w3.org/2000/svg" xmlns:xlink="http://www.w3.org/1999/xlink" x="0px" y="0px"
	 viewBox="360.6 606.3 76.4 65.5" enable-background="new 360.6 606.3 76.4 65.5" xml:space="preserve">
<g>
	<path fill="none" stroke="#191B28" stroke-width="4" stroke-miterlimit="10" d="M387.8,658h-19.2c0.8-5,3.8-9,7.6-10c0,0,0,0,0.1,0
		h0c0,0,0.1,0,0.1,0h0c0.1,0,0.2,0,0.3,0h0c0.5,0,1-0.1,1.5-0.1c0.4,0,0.8,0,1.2,0.1c0,0,0,0,0.1,0h0c0,0,0.1,0,0.1,0
		C383.6,649,386.9,652.9,387.8,658z"/>
	<circle fill="none" stroke="#191B28" stroke-width="4" stroke-miterlimit="10" cx="377.9" cy="642.3" r="5"/>
	<path fill="#191B28" stroke="#191B28" stroke-width="4" stroke-miterlimit="10" d="M368.5,658L368.5,658c0,0.1,0,0.2,0,0.3
		c0,0.2-0.1,0.4-0.1,0.5v-0.1C368.5,658.5,368.5,658,368.5,658z"/>
	<path fill="none" stroke="#191B28" stroke-width="4" stroke-miterlimit="10" d="M430.3,669.8h-62.9c-2.6,0-4.8-2.1-4.8-4.8v-34.3
		c0-2.6,2.1-4.8,4.8-4.8h62.9c2.6,0,4.8,2.1,4.8,4.8v34.3C435,667.7,432.9,669.8,430.3,669.8z"/>
	<line fill="none" stroke="#191B28" stroke-width="4" stroke-miterlimit="10" x1="395" y1="639" x2="428" y2="639"/>
	<line fill="none" stroke="#191B28" stroke-width="4" stroke-miterlimit="10" x1="395" y1="651" x2="428" y2="651"/>
	<line fill="none" stroke="#191B28" stroke-width="4" stroke-miterlimit="10" x1="395" y1="657" x2="428" y2="657"/>
	<line fill="none" stroke="#191B28" stroke-width="4" stroke-miterlimit="10" x1="395" y1="645" x2="416" y2="645"/>
	<circle fill="none" stroke="#191B28" stroke-width="4" stroke-miterlimit="10" cx="398.9" cy="613.3" r="5"/>
	<line fill="none" stroke="#191B28" stroke-width="4" stroke-miterlimit="10" x1="398.9" y1="618.3" x2="398.8" y2="626"/>
</g>
</svg>
