<?xml version="1.0" encoding="utf-8"?>
<!-- Generator: Adobe Illustrator 18.1.1, SVG Export Plug-In . SVG Version: 6.00 Build 0)  -->
<svg version="1.1" id="Layer_1" xmlns="http://www.w3.org/2000/svg" xmlns:xlink="http://www.w3.org/1999/xlink" x="0px" y="0px"
	 viewBox="360.4 605.2 76.6 66.8" enable-background="new 360.4 605.2 76.6 66.8" xml:space="preserve">
<path fill="none" stroke="#191B28" stroke-width="4" stroke-miterlimit="10" d="M434,640h1v26.9c-0.1,0.5-0.4,0.9-0.7,1.3
	c0,0,0,0,0,0c-0.1,0.2-0.3,0.4-0.4,0.5c-0.7,0.7-1.8,1.2-2.9,1.2h-3h-53h-3.8H371"/>
<polyline fill="none" stroke="#191B28" stroke-width="4" stroke-miterlimit="10" points="370,640 367.3,640 367,640 367,640.3 
	367,665.8 367,665.9 367,666 "/>
<line fill="none" stroke="#191B28" stroke-width="4" stroke-miterlimit="10" x1="426" y1="644" x2="426" y2="644"/>
<line fill="none" stroke="#191B28" stroke-width="4" stroke-miterlimit="10" x1="377" y1="630.5" x2="367" y2="640.3"/>
<line fill="none" stroke="#191B28" stroke-width="4" stroke-miterlimit="10" x1="399.6" y1="608.4" x2="391.8" y2="616"/>
<path fill="none" stroke="#191B28" stroke-width="4" stroke-miterlimit="10" d="M385,623h10v9h-10V623z M426,640v-10.3V621
	c0-2.6-2.1-5-4.7-5h-9.6h-19.9H382c-2.6,0-5,2.4-5,5v9.5v9.5 M370,640L370,640l17.9,7.9l14.7,6.5l13.9-6.5l9.4-4.4l7.5-3.5"/>
<rect x="385" y="623" fill="none" stroke="#191B28" stroke-width="4" stroke-miterlimit="10" width="10" height="9"/>
<line fill="none" stroke="#191B28" stroke-width="4" stroke-miterlimit="10" x1="435.7" y1="639" x2="426" y2="629.7"/>
<line fill="none" stroke="#191B28" stroke-width="4" stroke-miterlimit="10" x1="411.7" y1="616" x2="403.8" y2="608.4"/>
<polyline fill="none" stroke="#191B28" stroke-width="4" stroke-miterlimit="10" points="369.9,640 368.1,639.2 367.7,639 "/>
<line fill="none" stroke="#191B28" stroke-width="4" stroke-miterlimit="10" x1="435.7" y1="639" x2="433.5" y2="640"/>
<polyline fill="none" stroke="#191B28" stroke-width="4" stroke-miterlimit="10" points="368.5,669 368.8,668.6 375.1,661.8 
	387.9,647.9 "/>
<line fill="none" stroke="#191B28" stroke-width="4" stroke-miterlimit="10" x1="434.3" y1="668.3" x2="416.6" y2="647.9"/>
<path fill="none" stroke="#191B28" stroke-width="4" stroke-miterlimit="10" d="M375,670h-3.8c-1,0-2-0.4-2.7-1c0,0-0.1-0.1-0.1-0.1
	c-0.1,0-0.1-0.1-0.2-0.2c-0.7-0.7-1.2-1.8-1.2-2.8"/>
<line fill="none" stroke="#191B28" stroke-width="4" stroke-miterlimit="10" x1="375" y1="662" x2="375" y2="662"/>
<line fill="none" stroke="#191B28" stroke-width="4" stroke-miterlimit="10" x1="429" y1="662" x2="429" y2="662"/>
<path fill="none" stroke="#191B28" stroke-width="4" stroke-miterlimit="10" d="M435,666.9c-0.1,0.5-0.4,0.9-0.7,1.3c0,0,0,0,0,0
	c-0.1,0.2-0.3,0.4-0.4,0.5c-0.7,0.7-1.8,1.2-2.9,1.2h-3"/>
<path fill="none" stroke="#191B28" stroke-width="4" stroke-miterlimit="10" d="M399.6,608.4l1.1-1.1c0.3-0.1,0.6-0.2,1-0.2
	c0.4,0,0.7,0,1,0.1l1.1,1.1"/>
<rect x="385" y="623" fill="none" stroke="#191B28" stroke-width="4" stroke-miterlimit="10" width="10" height="9"/>
<line fill="none" stroke="#191B28" stroke-width="4" stroke-miterlimit="10" x1="400" y1="623" x2="419" y2="623"/>
<line fill="none" stroke="#191B28" stroke-width="4" stroke-miterlimit="10" x1="400" y1="628" x2="419" y2="628"/>
<line fill="none" stroke="#191B28" stroke-width="4" stroke-miterlimit="10" x1="400" y1="633" x2="419" y2="633"/>
<line fill="none" stroke="#191B28" stroke-width="4" stroke-miterlimit="10" x1="426" y1="640" x2="426" y2="644"/>
<line fill="none" stroke="#191B28" stroke-width="4" stroke-miterlimit="10" x1="377" y1="640" x2="377" y2="643"/>
<line fill="none" stroke="#191B28" stroke-width="4" stroke-miterlimit="10" x1="385" y1="640" x2="419" y2="640"/>
<line fill="none" stroke="#191B28" stroke-width="4" stroke-miterlimit="10" x1="397" y1="645" x2="407" y2="645"/>
</svg>
