<?xml version="1.0" encoding="utf-8"?>
<!-- Generator: Adobe Illustrator 18.1.1, SVG Export Plug-In . SVG Version: 6.00 Build 0)  -->
<svg version="1.1" id="Layer_1" xmlns="http://www.w3.org/2000/svg" xmlns:xlink="http://www.w3.org/1999/xlink" x="0px" y="0px"
	 viewBox="375.3 847 73.5 59" enable-background="new 375.3 847 73.5 59" xml:space="preserve">
<path fill="none" stroke="#191B28" stroke-width="4" stroke-miterlimit="10" d="M441.9,894.8h-59.7c-2.7,0-4.9-2.2-4.9-4.9v-36
	c0-2.7,2.2-4.9,4.9-4.9h59.7c2.7,0,4.9,2.2,4.9,4.9v36C446.8,892.6,444.6,894.8,441.9,894.8z"/>
<path fill="none" stroke="#191B28" stroke-width="4" stroke-miterlimit="10" d="M436.2,886h-47.7c-2.5,0-4.5-2-4.5-4.5v-21.9
	c0-2.5,2-4.5,4.5-4.5h47.7c2.5,0,4.5,2,4.5,4.5v21.9C440.7,884,438.6,886,436.2,886z"/>
<ellipse fill="#191B28" stroke="#191B28" stroke-width="4" stroke-miterlimit="10" cx="412.5" cy="890.1" rx="0.7" ry="1.1"/>
<rect x="390" y="861.7" fill="none" stroke="#191B28" stroke-width="4" stroke-miterlimit="10" width="20.5" height="11"/>
<line fill="none" stroke="#191B28" stroke-width="4" stroke-miterlimit="10" x1="388" y1="880" x2="413" y2="880"/>
<line fill="none" stroke="#191B28" stroke-width="4" stroke-miterlimit="10" x1="416" y1="862" x2="437" y2="862"/>
<line fill="none" stroke="#191B28" stroke-width="4" stroke-miterlimit="10" x1="416" y1="880" x2="437" y2="880"/>
<path fill="none" stroke="#191B28" stroke-width="4" stroke-miterlimit="10" d="M416.3,894.8C416.3,894.8,416.3,894.8,416.3,894.8
	c1.5,1.1,2.4,2.9,2.4,4.9c0,0.2,0,0.5,0,0.8"/>
<path fill="none" stroke="#191B28" stroke-width="4" stroke-miterlimit="10" d="M408,900.5c0-0.2,0-0.4,0-0.6c0-2,0.9-3.9,2.4-5
	c0,0,0.1,0,0.1-0.1"/>
<rect x="405" y="902" fill="#191B28" stroke="#191B28" stroke-width="4" stroke-miterlimit="10" width="16" height="2"/>
<line fill="none" stroke="#191B28" stroke-width="4" stroke-miterlimit="10" x1="416" y1="868" x2="437" y2="868"/>
<line fill="none" stroke="#191B28" stroke-width="4" stroke-miterlimit="10" x1="416" y1="874" x2="437" y2="874"/>
</svg>
