<?xml version="1.0" encoding="utf-8"?>
<!-- Generator: Adobe Illustrator 18.1.1, SVG Export Plug-In . SVG Version: 6.00 Build 0)  -->
<svg version="1.1" id="Layer_1" xmlns="http://www.w3.org/2000/svg" xmlns:xlink="http://www.w3.org/1999/xlink" x="0px" y="0px"
	 viewBox="0 0 53.5 77.9" enable-background="new 0 0 53.5 77.9" xml:space="preserve">
<g>
	<path d="M13.6,61.8c-0.5-4.4-1-8.8-1.5-13.2c-0.1-0.7-0.6-1.6-1.2-2c-11.6-7-16.5-28.2-1.6-40.3C21.6-3.6,35.7-0.6,45,7
		c8.3,6.8,12.7,23.4,2.6,35.5c-0.1,0.1-0.1,0.2-0.2,0.2c-8.1,4.6-6.8,12.4-6.9,19.7c0,1.5,0,3,0,4.4c0,0.5,0.1,1.3-0.3,1.6
		c-2.6,2.7-4.9,5.8-8,7.9c-3,2-6.8,1.9-10.2,0.4c-1.8-0.8-3.1-2.6-4.6-4c-0.2-0.2-0.2-0.6-0.4-0.7C11.9,70.1,13.4,65.7,13.6,61.8z
		 M31.6,54.9c1.4,0,2.5,0,3.8,0c0.4-2.7,0.6-5.4,1.2-8c0.3-1.4,1.1-2.9,2.2-3.7c3.9-3.1,7.2-6.8,8.7-11.5c1.9-6.2,0.7-12-3.3-17.5
		c-9.6-13.2-29.5-11.3-36.9,3c-3.7,7-3.5,18.6,7.4,25.8c1.6,1,2.2,2.2,2.4,4c0.3,2.6,0.7,5.3,1.1,7.8c1.4,0,2.6,0,3.8,0
		c-0.1-6.8,0.1-13.4-2.9-19.5c-0.9-1.7-1.5-3.6-2-5.5c-0.2-0.7,0.1-1.6,0.2-2.4c0.6,0.5,1.3,0.9,1.9,1.4c0.2,0.2,0.3,0.6,0.4,0.7
		c5,0,9.8,0,14.2,0c1-0.8,1.8-1.6,2.6-2.3c0,1.1,0.3,2.3,0,3.4c-0.3,1.3-0.8,2.7-1.4,3.9C31.6,40.9,31.8,47.8,31.6,54.9z M24.4,54.8
		c1.9,0,3.2,0,5,0c-0.5-8.1,0.3-15.9,4.3-23.3c-4.8,0-8.9,0-13.7,0C24.2,38.9,24.6,46.8,24.4,54.8z M36.1,60.8c-0.3,0.3-0.7,0.7-1,1
		c-0.6,0.2-1.3,0.3-1.9,0.5c-4.9,1-9.7,2-14.6,3.2c-0.6,0.2-1.1,1.1-1.6,1.7c0.6,0.3,1.2,1,1.7,0.9c5.6-1.1,11.2-2.3,16.8-3.6
		c0.5-0.1,1.1-1,1.1-1.5C36.7,62.2,36.3,61.5,36.1,60.8z M18.2,64.5c6.1-1.3,11.7-2.5,17.3-3.8c0.5-0.1,0.8-1,1.2-1.5
		c-0.6-0.3-1.2-1.1-1.7-1c-5.6,1.1-11.2,2.3-16.8,3.5c-0.5,0.1-1.1,1-1.1,1.6C17.1,63.8,17.9,64.2,18.2,64.5z M33.1,70.6
		c-2.6,0.6-4.5,1.4-6.3,1.4c-1.9,0-3.7-0.7-5.6-1.2C24.1,74.8,29.9,74.8,33.1,70.6z M28.2,58.4c0-0.1,0-0.3,0-0.4
		c-3.2,0-6.3-0.1-9.4,0.1c-0.6,0-1.2,1-1.7,1.6c0.7,0.3,1.4,0.9,2,0.8C22.1,59.9,25.2,59.1,28.2,58.4z M25.2,67.7c0,0.2,0,0.3,0,0.5
		c3.2,0,6.4,0.1,9.6-0.1c0.6,0,1.2-1,1.9-1.5c-0.7-0.3-1.5-1.1-2.1-1C31.4,66.3,28.3,67,25.2,67.7z"/>
</g>
</svg>
